<?xml version="1.0" encoding="utf-8"?>
<!-- Generator: Adobe Illustrator 26.0.1, SVG Export Plug-In . SVG Version: 6.00 Build 0)  -->
<svg version="1.1" xmlns="http://www.w3.org/2000/svg" xmlns:xlink="http://www.w3.org/1999/xlink" x="0px" y="0px"
	 viewBox="0 0 676.3 457.3" style="enable-background:new 0 0 676.3 457.3;" xml:space="preserve">
<style type="text/css">
	.st0{fill:#0F1C40;}
	.st1{fill:#FFFFFF;}
	.st2{fill:#6ECCDA;}
</style>
<g id="Layer_1">
	<g>
		<path class="st1" d="M554.1,272.9c0-1.1,0-2.2-0.1-3.3v-39.2c0-9.7-7.8-17.5-17.5-17.5h-7.7c-3.6,0-6.5,2.9-6.5,6.5l0,0
			c-9.2-5.1-19.9-7.8-31.2-7.5c-32.8,1-59.5,28.6-59.3,61.4c0.2,33.5,27.5,60.7,61.1,60.7c10.6,0,20.6-2.7,29.3-7.5v1.3
			c0,3.6,2.9,6.5,6.5,6.5h7.7c9.7,0,17.5-7.8,17.5-17.5v-40.5C554,275.2,554.1,274.1,554.1,272.9z M493,302.2
			c-16.1,0-29.3-13.1-29.3-29.3c0-16.1,13.1-29.3,29.3-29.3c16.1,0,29.3,13.1,29.3,29.3C522.2,289.1,509.1,302.2,493,302.2z"/>
		<g>
			<g>
				<g>
					<g>
						<path class="st1" d="M176.6,334.5h-5.1c-27.4,0-49.6-22.2-49.6-49.6V145.8c0-8.9,7.2-16,16-16h0c8.9,0,16,7.2,16,16v139.1
							c0,9.7,7.9,17.5,17.5,17.5h5.1c8.9,0,16,7.2,16,16v0C192.6,327.3,185.5,334.5,176.6,334.5z"/>
					</g>
				</g>
			</g>
			<g>
				<g>
					<g>
						<path class="st1" d="M293.6,334.5h-45.8c-27.4,0-49.6-22.2-49.6-49.6v-55.9c0-8.9,7.2-16,16-16h0c8.9,0,16,7.2,16,16v55.9
							c0,9.7,7.9,17.5,17.5,17.5h24.1v-73.5c0-8.9,7.2-16,16-16h0c8.9,0,16,7.2,16,16v95.1C304,329.8,299.3,334.5,293.6,334.5z"/>
					</g>
				</g>
			</g>
			<g>
				<g>
					<g>
						<path class="st1" d="M408.5,334.2L408.5,334.2c-8.9,0-16-7.2-16-16v-55.9c0-9.7-7.9-17.5-17.5-17.5h-24.1v73.5
							c0,8.9-7.2,16-16,16h0c-8.9,0-16-7.2-16-16v-95.1c0-5.7,4.7-10.4,10.4-10.4H375c27.4,0,49.6,22.2,49.6,49.6v55.9
							C424.6,327,417.4,334.2,408.5,334.2z"/>
					</g>
				</g>
			</g>
		</g>
	</g>
	<path class="st2" d="M411.1,123.2c-3,0-6,0.4-8.8,1.1c6.4,8.4,10.3,20.2,10.3,33.2c0,13-4,24.8-10.3,33.2c2.8,0.7,5.8,1.1,8.8,1.1
		c19,0,34.4-15.4,34.4-34.4C445.5,138.5,430.1,123.2,411.1,123.2z"/>
	<path class="st2" d="M232.5,131.4c14.3,0,26,11.7,26,26c0,14.3-11.7,26-26,26s-26-11.7-26-26C206.5,143,218.2,131.4,232.5,131.4
		 M232.5,123c-19,0-34.4,15.4-34.4,34.4s15.4,34.4,34.4,34.4c19,0,34.4-15.4,34.4-34.4S251.5,123,232.5,123L232.5,123z"/>
	<path class="st2" d="M307.3,125.3c18.1,5.7,28.1,25,22.4,43.1c-3.3,10.4-11.1,18.2-20.5,21.8c17.4,4.1,35.2-5.8,40.7-23.1
		c5.7-18.1-4.3-37.4-22.4-43.1c-7.7-2.4-15.6-2-22.6,0.7C305.7,124.8,306.5,125.1,307.3,125.3z"/>
	<circle class="st2" cx="519.6" cy="157.3" r="34.4"/>
</g>
</svg>
